<?xml version="1.0" encoding="UTF-8"?>
<svg width="201px" height="209px" viewBox="0 0 201 209" version="1.1" xmlns="http://www.w3.org/2000/svg" xmlns:xlink="http://www.w3.org/1999/xlink">
    <!-- Generator: Sketch 55.2 (78181) - https://sketchapp.com -->
    <title>Group 45</title>
    <desc>Created with Sketch.</desc>
    <defs>
        <polygon id="path-1" points="0.576184027 0.431584409 14.798549 0.431584409 14.798549 11.0647207 0.576184027 11.0647207"></polygon>
        <polygon id="path-3" points="0.575472786 0.446404111 13.046684 0.446404111 13.046684 15.7656405 0.575472786 15.7656405"></polygon>
    </defs>
    <g id="Pages" stroke="none" stroke-width="1" fill="none" fill-rule="evenodd">
        <g id="Our-Mission" transform="translate(-213.000000, -221.000000)">
            <g id="Group-45" transform="translate(316.739513, 322.207470) rotate(-98.000000) translate(-316.739513, -322.207470) translate(214.739513, 217.207470)">
                <polygon id="Fill-1" fill="#F9D10A" points="0.910246908 53.6183757 11.3365232 60.9133514 12.9102469 58.3894184 9.08232831 55.7111904 11.6399863 51.6087593 9.34651967 50.003789 6.78814766 54.1054637 4.77815123 52.6986566 7.38507733 48.5183217 5.09089668 46.9133514"></polygon>
                <g id="Group-44" transform="translate(10.973768, 0.267301)">
                    <path d="M10.4833724,36.7601922 C8.68393334,35.0732687 6.27124669,35.2459024 4.72864455,36.8831642 C3.18683268,38.520426 3.16312465,40.932569 4.963354,42.6202808 C6.76279307,44.3072043 9.17626998,44.1345705 10.7180819,42.4973088 C12.260684,40.860047 12.2828115,38.4471157 10.4833724,36.7601922 M2.79802107,44.9181229 C-0.167852815,42.1378522 -0.236606086,37.6643517 2.48270435,34.7776629 C5.20201478,31.8909741 9.68204118,31.6820794 12.6479151,34.4623501 C15.613789,37.2426208 15.6833325,41.7161213 12.9640221,44.6028101 C10.2447116,47.4894988 5.76389496,47.6976053 2.79802107,44.9181229" id="Fill-2" fill="#F9D10A"></path>
                    <path d="M19.8647168,28.1802941 L21.770842,26.7732107 C22.4694385,26.256886 22.5824467,25.217142 21.9834239,24.4091529 C21.3836109,23.6011639 20.3531021,23.4056699 19.6545057,23.9219946 L17.7483805,25.3290781 L19.8647168,28.1802941 Z M22.7175824,29.5069728 L21.510844,30.3977315 L24.2151393,34.0419593 L21.6744294,35.9180705 L13.4445837,24.8293072 L17.8906286,21.5453243 C20.0030136,19.9853142 22.9601946,20.4259639 24.5241339,22.5322534 C25.5356763,23.895193 25.6265571,25.7405613 24.8623684,27.2611573 L30.2504122,29.5850127 L27.5184574,31.6022264 L22.7175824,29.5069728 Z" id="Fill-4" fill="#F9D10A"></path>
                    <path d="M45.0599459,12.1086425 C44.6806175,11.1776815 43.730716,10.7338787 42.8353429,11.098065 L40.9142026,11.8784642 L42.2552866,15.1632354 L44.1764268,14.3828362 C45.0725902,14.0186499 45.4400646,13.0396036 45.0599459,12.1086425 M47.9870967,10.919125 C48.9780921,13.3462453 47.8179794,16.0941965 45.2938651,17.1197514 L43.3727248,17.9001506 L45.0125298,21.9140827 L42.0853791,23.1036002 L36.8696136,10.3310666 L41.7171144,8.36114979 C44.2412288,7.33559488 46.9961012,8.49279289 47.9870967,10.919125" id="Fill-6" fill="#F9D10A"></path>
                    <polygon id="Fill-8" fill="#F9D10A" points="63.997758 12.9219919 64.7018863 15.8748964 56.2436533 17.8802859 53.0454408 4.45978439 61.4064709 2.47646681 62.1098089 5.42937128 56.8245 6.6827397 57.3547694 8.9064833 62.160386 7.76662749 62.8550312 10.6816944 58.0494146 11.8215502 58.6152461 14.1982205"></polygon>
                    <path d="M79.874864,7.41245237 C79.7199716,4.95458902 77.8422961,3.43399299 75.593985,3.57509547 C73.3464643,3.71619795 71.6750486,5.4598778 71.8307313,7.91852943 C71.986414,10.3763928 73.8640895,11.8969888 76.11082,11.7558863 C78.3583407,11.6147839 80.0297565,9.87110401 79.874864,7.41245237 M68.6759834,8.11638822 C68.420727,4.06461861 71.4371781,0.756198947 75.4003695,0.507101827 C79.363561,0.258004707 82.7735652,3.16282397 83.0288216,7.21459358 C83.2848683,11.2655749 80.267627,14.5747829 76.3044355,14.82388 C72.3420343,15.0729771 68.9320301,12.1673696 68.6759834,8.11638822" id="Fill-10" fill="#F9D10A"></path>
                    <path d="M96.534572,6.21308127 C96.6475803,5.21432794 96.0272203,4.37086618 95.0654648,4.26208326 L93.0044471,4.03032834 L92.6045718,7.55473728 L94.6663797,7.78728048 C95.6281352,7.8960634 96.4207735,7.2118346 96.534572,6.21308127 M99.6758853,6.5670199 C99.3811155,9.17150371 97.042714,11.0302727 94.3336771,10.7244193 L92.2718692,10.4926644 L91.7834839,14.8006257 L88.6429609,14.4458987 L90.1958365,0.739250884 L95.3989576,1.32494443 C98.1072043,1.63079786 99.9706551,3.96332437 99.6758853,6.5670199" id="Fill-12" fill="#F9D10A"></path>
                    <polygon id="Fill-14" fill="#F9D10A" points="112.210239 15.7975659 111.426294 18.7299751 103.599484 16.6489105 107.16201 3.31984975 110.216394 4.13256852 107.437814 14.5284319"></polygon>
                    <polygon id="Fill-16" fill="#F9D10A" points="125.205714 20.9387413 124.014781 23.7324128 116.014112 20.339647 121.425074 7.64278838 129.334861 10.9969284 128.144718 13.7898116 123.143906 11.6701213 122.246952 13.774046 126.793361 15.7013955 125.618233 18.4588061 121.072615 16.5306682 120.11402 18.7804251"></polygon>
                    <path d="M144.790281,30.8442144 L146.58972,25.8402001 L142.21717,28.8798156 L144.790281,30.8442144 Z M143.741596,33.7671642 L139.663025,30.6518736 L137.792462,31.9541155 L135.047073,29.8572853 L147.187952,21.7545344 L150.388536,24.1982087 L145.714894,38.0041801 L142.969504,35.9073499 L143.741596,33.7671642 Z" id="Fill-18" fill="#F9D10A"></path>
                    <polygon id="Fill-20" fill="#F9D10A" points="166.557329 39.8101342 156.377104 49.1473348 154.772861 47.4068081 156.688469 38.4211813 151.162128 43.4898347 149.022874 41.1691324 159.20152 31.8319318 160.807343 33.5724585 158.891735 42.5580853 164.417285 37.4894319"></polygon>
                    <path d="M170.692404,57.7362981 C172.693361,56.4679523 173.154877,54.4002885 171.989233,52.5698977 L170.716902,50.5739676 L164.17981,54.7179662 L165.45214,56.7146846 C166.617785,58.5442871 168.690656,59.0046439 170.692404,57.7362981 M172.324306,60.2982147 C169.022569,62.3911034 164.928983,61.5531596 162.883771,58.342487 L159.915526,53.6845285 L171.590148,46.2841368 L174.557602,50.941307 C176.602815,54.1519797 175.626044,58.2045376 172.324306,60.2982147" id="Fill-22" fill="#F9D10A"></path>
                    <polygon id="Fill-24" fill="#F9D10A" points="183.305784 76.2777949 180.768235 77.0944551 182.344819 81.9699794 179.450069 82.9017288 177.872695 78.0262044 173.04179 79.5806966 172.071342 76.5804952 185.230876 72.3458442 187.807938 80.3153755 184.913188 81.2471248"></polygon>
                    <path d="M184.346883,99.1806986 C186.79197,98.8362193 188.167036,96.8521134 187.852509,94.6283699 C187.537193,92.403838 185.665049,90.8761474 183.219961,91.2206267 C180.774874,91.5651059 179.400599,93.5492118 179.715915,95.7737436 C180.029651,97.9982755 181.901795,99.5251778 184.346883,99.1806986 M182.778992,88.0990298 C186.806985,87.5322551 190.348174,90.2770531 190.902942,94.1979679 C191.45771,98.1196709 188.817426,101.734732 184.789433,102.302295 C180.759859,102.869858 177.21867,100.12506 176.663902,96.2033573 C176.109134,92.2824425 178.749418,88.6665929 182.778992,88.0990298" id="Fill-26" fill="#F9D10A"></path>
                    <g id="Group-30" transform="translate(177.019918, 107.994638)">
                        <mask id="mask-2" fill="white">
                            <use xlink:href="#path-1"></use>
                        </mask>
                        <g id="Clip-29"></g>
                        <path d="M8.16433246,3.85824638 L8.07503224,6.22151589 C8.041841,7.08783784 8.78469244,7.82566981 9.79149322,7.86350735 C10.798294,7.90134489 11.5948836,7.22184578 11.6280749,6.35552383 L11.7173751,3.99225432 L8.16433246,3.85824638 Z M5.34386779,5.25035243 L5.40076705,3.75419315 L0.860680323,3.58234767 L0.980010714,0.431584409 L14.798628,0.954215392 L14.5884169,6.46745988 C14.4888432,9.08613277 12.2966412,11.1135941 9.67137257,11.0142706 C7.973878,10.9496315 6.47316003,9.86810854 5.76112903,8.32228749 L0.576184027,11.0647207 L0.704997628,7.67826107 L5.34386779,5.25035243 Z" id="Fill-28" fill="#F9D10A" mask="url(#mask-2)"></path>
                    </g>
                    <path d="M182.020809,141.505847 C182.987307,141.791993 183.928515,141.33006 184.203528,140.404617 L184.793858,138.419722 L181.383064,137.41151 L180.793524,139.395616 C180.518511,140.321059 181.054312,141.220488 182.020809,141.505847 M181.121485,144.528908 C178.602903,143.783982 177.17647,141.162156 177.952512,138.554519 L178.542052,136.570413 L174.374181,135.33754 L175.273506,132.31369 L188.534194,136.236969 L187.04454,141.244925 C186.270078,143.852562 183.641648,145.274623 181.121485,144.528908" id="Fill-31" fill="#F9D10A"></path>
                    <polygon id="Fill-33" fill="#F9D10A" points="169.812599 155.232674 167.055356 153.949351 170.481165 146.625423 183.016388 152.460287 181.679256 155.318597 171.902066 150.767057"></polygon>
                    <path d="M164.7831,167.284009 L169.892179,168.791992 L166.603086,164.610945 L164.7831,167.284009 Z M161.80063,166.406651 L164.684316,162.168847 L163.275269,160.381023 L165.216957,157.529019 L174.014214,169.154602 L171.750888,172.478787 L157.673063,168.612264 L159.61475,165.759471 L161.80063,166.406651 Z" id="Fill-35" fill="#F9D10A"></path>
                    <polygon id="Fill-37" fill="#F9D10A" points="157.040217 189.464846 147.12236 179.857265 148.773229 178.16167 157.872369 179.561659 152.488276 174.345597 154.689171 172.084804 164.607818 181.691597 162.95695 183.38798 153.85781 181.987991 159.241902 187.203265"></polygon>
                    <polygon id="Fill-39" fill="#F9D10A" points="137.536652 191.220744 135.716666 188.788894 142.683665 183.601999 150.955394 194.656866 144.069003 199.78464 142.248227 197.35279 146.602601 194.111375 145.231487 192.279407 141.273827 195.226005 139.477549 192.825687 143.435209 189.8783 141.970053 187.920208"></polygon>
                    <g id="Group-43" transform="translate(125.652531, 192.340814)">
                        <mask id="mask-4" fill="white">
                            <use xlink:href="#path-3"></use>
                        </mask>
                        <g id="Clip-42"></g>
                        <polygon id="Fill-41" fill="#F9D10A" mask="url(#mask-4)" points="2.56141499 13.0943892 5.69166451 11.4121954 0.575472786 1.94177511 3.35800462 0.446404111 8.47340608 9.91682437 11.6028653 8.23463053 13.046684 10.9061183 4.00444342 15.765877"></polygon>
                    </g>
                </g>
            </g>
        </g>
    </g>
</svg>