<?xml version="1.0" encoding="UTF-8"?>
<svg width="49px" height="50px" viewBox="0 0 49 50" version="1.1" xmlns="http://www.w3.org/2000/svg" xmlns:xlink="http://www.w3.org/1999/xlink">
    <!-- Generator: Sketch 55.2 (78181) - https://sketchapp.com -->
    <title>Group 13</title>
    <desc>Created with Sketch.</desc>
    <g id="Pages" stroke="none" stroke-width="1" fill="none" fill-rule="evenodd">
        <g id="Our-Mission" transform="translate(-531.000000, -1811.000000)" stroke="#983C67" stroke-width="1.242">
            <g id="Para" transform="translate(372.000000, 1642.000000)">
                <g id="Group-13" transform="translate(160.000000, 169.643465)">
                    <path d="M21.2202764,12.2831908 C19.5978946,13.9009841 16.6471212,14.6676764 15.0007754,14.9845224 C14.4108184,15.0982364 13.8962118,14.5677384 14.0180078,13.9713665 C14.3577025,12.3077369 15.1628407,9.32938415 16.7852225,7.7115908 C18.3979694,6.10356583 21.3228024,5.33637261 22.9748304,5.01601997 C23.5788693,4.89879946 24.1070637,5.44307333 23.9813149,6.05372207 C23.6381615,7.72286201 22.8330233,10.6751658 21.2202764,12.2831908 Z" id="Stroke-1"></path>
                    <path d="M33.8398389,7.74603855 C33.2920361,10.1267378 31.0419498,12.5175102 29.7228876,13.7525261 C29.2500162,14.1952126 28.4750103,14.0199936 28.242455,13.4179929 C27.5940298,11.738965 26.6121594,8.61868769 27.1602299,6.23772336 C27.7045538,3.87133852 29.9308225,1.49514566 31.2528285,0.253767792 C31.736672,-0.200052174 32.5320164,-0.0205918252 32.7693888,0.596253421 C33.417814,2.28270355 34.3844305,5.37965371 33.8398389,7.74603855 Z" id="Stroke-3"></path>
                    <path d="M22.1232016,24.2731726 C19.9329462,23.202379 18.0673375,20.3793265 17.1344025,18.7599338 C16.8000921,18.1793119 17.1210824,17.4194754 17.7479143,17.3088005 C19.4957308,17.0000906 22.7001482,16.6557063 24.8904036,17.7267808 C27.0673388,18.7911137 28.923545,21.586357 29.8619647,23.2105251 C30.2051552,23.8046301 29.8758073,24.5841297 29.2338269,24.6967709 C27.4789585,25.0040763 24.3001368,25.3377864 22.1232016,24.2731726 Z" id="Stroke-5"></path>
                    <path d="M5,31.7378962 C5,31.7378962 10.3779192,27.8704669 13.9240604,29.3285622 C17.4699412,30.7866575 15.535067,31.6838424 22.3073869,31.3472962 C29.0799672,31.01075 29.295011,35.3269076 28.8649233,36" id="Stroke-7"></path>
                    <path d="M5,46 L18.4979762,46 L33.3888951,43.589774 L46.9940207,32.9387819 C46.9940207,32.9387819 47.315469,28.876893 43.2445684,30.303885 L34.4868526,35.9031073 L16.4626556,36.3423454 C16.4626556,36.3423454 13.7875517,36.5619644 13.8931445,39.0870517" id="Stroke-9"></path>
                    <polygon id="Stroke-11" points="0 48 5 48 5 27 0 27"></polygon>
                </g>
            </g>
        </g>
    </g>
</svg>