<?xml version="1.0" encoding="UTF-8"?>
<svg width="44px" height="50px" viewBox="0 0 44 50" version="1.1" xmlns="http://www.w3.org/2000/svg" xmlns:xlink="http://www.w3.org/1999/xlink">
    <!-- Generator: Sketch 55.2 (78181) - https://sketchapp.com -->
    <title>Fill 28</title>
    <desc>Created with Sketch.</desc>
    <g id="Pages" stroke="none" stroke-width="1" fill="none" fill-rule="evenodd">
        <g id="Our-Mission" transform="translate(-541.000000, -1648.000000)" stroke="#A2BD3C">
            <g id="Para" transform="translate(372.000000, 1642.000000)">
                <path d="M206.619946,28.1210588 C206.640776,29.7140756 206.020899,30.7641509 204.632008,31.7251239 C203.068152,32.8076758 199.453869,33.6270843 197.640062,35.2167702 C196.521118,36.1977287 195.830422,37.5325985 196.538614,38.3653307 C196.938535,38.8233335 197.719213,39.1156225 199.203085,37.8407094 C200.402847,36.8256088 201.521792,36.4883523 202.087513,36.9280349 C202.655733,37.369383 202.709889,38.6084886 202.040855,39.9192091 C201.021891,41.9144355 199.471365,43.1135699 196.232008,44.5233856 C194.450695,45.2986593 192.555238,46.5127829 191.110525,48.0699922 C189.209236,50.1176808 188.309414,51.6007769 187.636215,52.5500916 C186.60392,54.0040421 186.120682,54.8983965 184.596818,57.0668313 C182.957977,59.400147 181.973172,60.4560515 181.321635,60.7966389 C180.634271,61.1555465 180.143535,60.9890001 179.86859,60.6858855 C179.685293,60.4835316 179.601143,60.2020681 179.690292,59.9231028 C179.856926,59.29439 180.529292,58.815569 181.14417,57.9203818 C181.401619,57.5456523 182.468907,56.2998849 183.396223,54.4720376 C183.908621,53.4619334 185.287514,50.9412529 185.390827,49.0975838 C185.505804,47.0615535 184.596818,44.456767 181.826535,42.9253725 C179.782774,41.7961875 178.585511,40.8019053 178.028122,39.8434305 C176.785868,37.708305 178.416378,35.2192684 182.458909,36.8297725 C184.062757,37.4693109 184.451847,37.9048298 185.784916,37.6799921 C187.118817,37.4559871 188.033636,35.5573576 186.044031,34.0534432 C185.07589,33.3206389 183.873628,33.0033679 182.338933,32.175632 C179.701956,30.7516599 177.659862,29.5358709 177.756509,27.1425984 C177.863988,24.4753571 182.131474,25.5245997 182.873827,25.8918346 C184.319373,26.6054861 185.952382,26.8378184 186.820543,26.7312287 C188.554366,26.518882 188.988446,23.8266587 184.927586,20.7255638 C182.617211,18.9610042 180.379322,16.0572669 182.384757,13.9213087 C183.362896,12.8803934 185.642444,12.6847014 188.414394,14.7723611 C190.86974,16.6210266 191.290489,13.5590702 191.148018,9.35127423 C191.0697,7.0487696 192.48192,2.91841772 196.849386,4.26328028 C198.259939,4.69713377 199.142264,6.78479348 199.088108,8.66010647 C199.048116,10.0282855 198.516555,13.2551229 198.471564,13.9279706 C198.399078,15.0038606 199.36472,16.6052047 201.424311,15.338619 C203.022327,14.355995 203.676364,13.9146469 204.898622,14.2477398 C206.672436,14.7315572 206.629111,16.7592602 206.354166,17.5395303 C206.133376,18.1632467 205.263549,20.4465985 201.975035,22.1345468 C199.575511,23.365325 198.529886,24.8475884 198.900645,25.8102268 C199.388049,27.0759798 201.29767,26.3406773 202.287473,25.7819139 C203.215622,25.2572926 204.239586,24.7876317 205.315205,25.3330713 C206.140042,25.7519356 206.60245,26.8536403 206.619946,28.1210588" id="Fill-28" transform="translate(192.120454, 32.500000) rotate(22.000000) translate(-192.120454, -32.500000) "></path>
            </g>
        </g>
    </g>
</svg>