<?xml version="1.0" encoding="UTF-8"?>
<svg width="29px" height="17px" viewBox="0 0 29 17" version="1.1" xmlns="http://www.w3.org/2000/svg" xmlns:xlink="http://www.w3.org/1999/xlink">
    <!-- Generator: Sketch 55.2 (78181) - https://sketchapp.com -->
    <title>Fill 1</title>
    <desc>Created with Sketch.</desc>
    <g id="Pages" stroke="none" stroke-width="1" fill="none" fill-rule="evenodd">
        <g id="Nav" transform="translate(-1018.000000, -152.000000)" fill="#FFFFFF">
            <g id="Group" transform="translate(978.000000, 109.000000)">
                <g id="PA" transform="translate(28.000000, 26.000000)">
                    <path d="M15.7950238,18.8559788 C21.2059139,18.8549975 26.6788236,18.8101844 32.0209806,18.8101844 C33.5358252,18.8180349 35.0513092,18.8253947 36.5661538,18.8324274 C36.8557917,18.8775675 37.4683151,18.714507 37.6569314,18.8785488 C37.7303,18.885418 37.8642495,19.1382681 37.9523237,19.2221698 C38.0145032,19.1861886 37.9878092,19.1870063 38.0204174,19.1997633 C38.0357625,19.1919129 38.0507878,19.184226 38.0661329,19.176212 C38.0575013,19.4282443 38.03832,19.679786 38.2250181,19.7954167 C38.2729714,19.7154402 38.4185896,19.7309776 38.6115217,19.7496224 L38.6115217,19.8637811 C38.7542627,19.8184774 38.8250737,19.8590381 38.8842161,19.9326362 C38.891569,20.007379 38.8934871,20.0449958 38.9523098,20.1156499 C39.049655,20.1020752 39.0461384,20.0942247 39.1113549,20.1616078 C39.0555692,20.2226124 39.0803451,20.1967713 39.0204035,20.2075657 C38.9913118,20.2827992 39.0080955,20.2319348 38.9296119,20.2764207 C38.9722903,20.3789673 38.9559862,20.3882897 39.0431014,20.3912337 C39.0621228,20.4380093 39.152275,20.4751354 39.2023063,20.4823317 C39.1994291,20.6537333 39.1896786,20.6856258 39.2478619,20.7572612 C39.2023063,20.7953686 39.1567507,20.8336396 39.1113549,20.8720741 C39.292938,21.1108588 39.1553121,21.3058118 39.1340528,21.6051105 C39.2550549,21.6410918 39.5571607,22.3011843 39.58865,22.3842683 C39.702619,22.3510674 39.7307516,22.3872122 39.770393,22.3149226 C39.8482372,22.3973524 39.9885805,22.6235437 40.0657853,22.6129128 C40.111341,22.5981932 40.1567368,22.5824923 40.2021325,22.5674456 C40.2173177,22.605553 40.2323431,22.6439876 40.2476882,22.6822585 L40.4067333,22.6822585 C40.4171231,22.6207633 40.392667,22.647095 40.4521291,22.5903428 L40.4521291,22.6363007 C40.5010414,22.6798053 40.5135093,22.7309968 40.5656185,22.7735201 C40.6175679,22.6923987 40.7452835,22.7017211 40.7702192,22.7280529 L40.7702192,22.8881695 C40.8704416,22.9496647 41.0211748,23.0405992 40.9975179,23.163099 C40.6695173,23.3081689 40.5042383,23.3999211 40.2703861,23.6445937 C40.1383547,23.7821402 40.2066082,23.9551774 40.1567368,24.1709014 C40.0886431,24.466929 39.7858979,24.700153 39.4750007,24.8359004 L39.4750007,24.9726292 C39.528069,24.9580732 39.5809775,24.9423723 39.6342057,24.9273256 C39.6265331,24.9652694 39.6188606,25.0038675 39.6115078,25.0419749 C39.35256,25.0624188 39.1001658,25.5146378 38.8159626,25.6142405 C38.9273741,25.9941699 39.139008,26.1362959 39.2250042,26.5077206 C39.2099788,26.5234215 39.1946338,26.5386318 39.1796084,26.5536785 L38.9523098,26.5536785 C38.9598225,26.5693794 38.967495,26.5844261 38.9748479,26.5996363 C38.989074,26.6850101 38.9909921,26.6220429 39.0431014,26.7144493 C38.9829999,26.7860847 38.7891088,27.0199629 38.7931049,27.081131 C38.6642703,27.0366451 38.7486681,27.0317385 38.6115217,27.0351731 C38.5659661,27.111388 38.5205703,27.1874393 38.4750147,27.2641448 C38.5053851,27.2945653 38.5355957,27.3251494 38.5659661,27.3560605 C38.5205703,27.4170651 38.4750147,27.4780697 38.4296189,27.5390743 C38.4855644,27.6448919 38.4884416,27.6996816 38.588664,27.6996816 C38.495155,27.8789336 38.5427887,28.052625 38.4523168,28.1347277 C38.5176931,28.2377649 38.4659035,28.3954283 38.5659661,28.4096572 C38.6366173,28.4794936 38.7636935,28.3789096 38.8842161,28.3638629 C38.8952454,28.4276478 38.9033974,28.3506152 38.9296119,28.4096572 C38.9296119,28.4096572 39.3939597,28.9492125 39.0888169,29.257343 C39.1183881,29.2964317 39.1920763,29.3731372 39.1567507,29.4179502 C39.1912771,29.4585109 39.2071016,29.4580203 39.2478619,29.4410109 C39.325866,29.5283473 39.442872,29.4297259 39.5432543,29.5093753 C39.7470558,29.5536977 39.6313285,29.7568283 39.747855,29.9218514 C39.7523306,29.9282299 39.8308142,29.981384 39.770393,29.9907064 C39.891555,30.0590708 40.0128769,30.1279259 40.1340389,30.1967809 C40.1540194,30.2294912 40.2676687,30.4862665 40.2248304,30.5176683 L40.2703861,30.5176683 C40.3838755,30.5865234 40.4976847,30.6548878 40.6111742,30.7237428 C40.6631236,30.8138595 40.6274783,31.0101209 40.8383129,31.0673638 L40.8383129,31.2050739 C40.749919,31.2114524 40.5235795,31.3354242 40.2929241,31.3651905 C40.3200976,31.5980874 40.0419685,31.659092 39.9748339,31.6631808 C39.9748339,31.6631808 39.7296327,31.766218 39.7248374,31.7089751 C39.4871489,32.0429466 39.0478967,32.3280163 38.770407,32.4649087 C38.785752,32.5874085 38.8007774,32.7094177 38.8159626,32.8315904 C38.6431709,32.8423848 37.8313216,33.2447207 37.7250251,33.1292535 C37.6470211,33.2049777 37.4803035,33.3999307 37.4067751,33.4272438 C37.3466736,33.4496503 37.3199796,33.3964962 37.3613793,33.3814494 C37.2175194,33.3279682 37.0736595,33.2743234 36.9297996,33.2211693 L36.4525045,33.2211693 C36.3235101,33.2821739 36.1949953,33.3431785 36.0660009,33.4043466 C36.0284375,33.442454 35.9903946,33.4803979 35.9525115,33.518996 C35.8618797,33.5209586 35.5588149,33.8775002 35.6117234,34 L12,34 C12.0076725,28.9907545 12.0150254,23.9795465 12.0226979,18.9701375 C12.2108347,18.9707917 13.6945096,18.2416805 13.7496559,18.1226153 C13.8135937,18.0805826 13.8470011,17.8833399 13.8634651,17.8476858 C13.8983111,17.7724522 14.0877267,17.6753028 14.067906,17.664672 C14.1500659,17.6187141 14.1249704,17.7294382 14.1588574,17.6411206 C14.1815553,17.6725224 14.2042532,17.7026159 14.2271109,17.7330364 C14.2042532,17.7256766 14.1815553,17.7178261 14.1588574,17.7104663 C14.1738827,17.7636204 14.1892278,17.8169381 14.2042532,17.8707465 L14.2950447,17.8707465 C14.4619222,17.6273823 15.590583,17.2734576 15.6586766,17.0230607 C15.7723259,17.0191355 15.7296475,17.0385981 15.7950238,17 L15.7950238,18.8559788 Z" id="Fill-1"></path>
                </g>
            </g>
        </g>
    </g>
</svg>