<?xml version="1.0" encoding="UTF-8"?>
<svg width="41px" height="42px" viewBox="0 0 41 42" version="1.1" xmlns="http://www.w3.org/2000/svg" xmlns:xlink="http://www.w3.org/1999/xlink">
    <!-- Generator: Sketch 55.2 (78181) - https://sketchapp.com -->
    <title>Icon- Salad</title>
    <desc>Created with Sketch.</desc>
    <g id="Pages" stroke="none" stroke-width="1" fill="none" fill-rule="evenodd">
        <g id="Our-Mission" transform="translate(-806.000000, -4456.000000)" stroke="#A2BD3C" stroke-width="1.5">
            <g id="Para-3" transform="translate(403.000000, 4456.000000)">
                <g id="Icon--Salad" transform="translate(404.000000, 1.000000)">
                    <path d="M39,18 C39,25.0949578 35.5830122,31.2983534 29.77442,34.6661121 C29.77442,34.6661121 28.6542531,35.3268066 28.0170983,35.4018855 L28.0170983,38.4627592 C28.0170983,39.3116202 27.3153185,40 26.4488646,40 L12.6698539,40 C11.8034,40 11.1016202,39.3116202 11.1016202,38.4627592 L11.1016202,35.4018855 L10.0905978,34.883841 C4.06898245,31.5705145 0,25.2512158 0,18 L39,18 Z" id="Stroke-1"></path>
                    <path d="M5.04651192,6.94078347 C3.95731009,9.81847717 2.75670131,15.05992 6.86831388,18 L17.2878474,18 C17.2878474,18 20.5131779,12.6486384 13.2359171,8.7796951 C13.2359171,8.7796951 10.1369141,7.54781246 7.41639627,6.22581621 C6.49529956,5.77821898 5.40808714,5.98567832 5.04651192,6.94078347 Z" id="Stroke-3"></path>
                    <path d="M18.9575717,18 C18.9575717,18 15.0452347,7.95744074 23.0366362,5.46813993 C31.0285383,2.9778408 33.1098776,0.238961005 33.1098776,0.238961005 C33.1098776,0.238961005 34.7751493,-0.673998927 35.1081035,1.06906071 C35.4410577,2.81212036 38.3545321,15.0125395 31.4451066,18 L18.9575717,18 Z" id="Stroke-5"></path>
                    <path d="M8,11 C8,11 12.2853308,12.482417 13,18" id="Stroke-7"></path>
                    <path d="M24.0001166,17 C24.0001166,17 23.9210372,12.3489673 27.881201,10.4108816 C31.8418412,8.47279593 32,7 32,7" id="Stroke-9"></path>
                </g>
            </g>
        </g>
    </g>
</svg>