<?xml version="1.0" encoding="UTF-8"?>
<svg width="47px" height="47px" viewBox="0 0 47 47" version="1.1" xmlns="http://www.w3.org/2000/svg" xmlns:xlink="http://www.w3.org/1999/xlink">
    <!-- Generator: Sketch 55.2 (78181) - https://sketchapp.com -->
    <title>Icon- Smile</title>
    <desc>Created with Sketch.</desc>
    <g id="Pages" stroke="none" stroke-width="1" fill="none" fill-rule="evenodd">
        <g id="Our-Mission" transform="translate(-962.000000, -3246.000000)" stroke="#F9D10A" stroke-width="1.5">
            <g id="Para-2" transform="translate(372.000000, 2969.000000)">
                <g id="Icon--Smile" transform="translate(591.000000, 278.000000)">
                    <path d="M45,22.5 C45,34.9263303 34.9266382,45 22.5,45 C10.0733618,45 0,34.9263303 0,22.5 C0,10.0742274 10.0733618,0 22.5,0 C34.9266382,0 45,10.0742274 45,22.5 Z" id="Stroke-1"></path>
                    <path d="M39.3759822,15.766858 C39.8902538,17.6584232 40.1020769,19.6792119 39.9535824,21.7701823 C39.3421342,30.3919542 32.4846337,37.3622271 24.0330004,37.9571009 C15.3258692,38.5692417 7.88203353,32.5609044 6.05587803,24.3735909 C5.68300383,22.702597 7.23946701,21.2432622 8.84397254,21.7506874 C12.0862857,22.7761207 17.4844996,23.799883 23.6606721,22.2057547 C29.4748892,20.7046452 33.2331118,17.3698982 35.3671751,14.8272024 C36.585158,13.3756656 38.875359,13.9254226 39.3759822,15.766858 Z" id="Stroke-3"></path>
                    <path d="M7.28383213,17 C6.35582343,14.2471177 7.77813637,11.2436962 10.4611628,10.2909161 C13.1441892,9.33935508 16.0713972,10.7986997 17,13.5515821" id="Stroke-5"></path>
                    <path d="M22.5060079,14 C21.2653123,11.5530949 22.3846091,8.6302926 25.0062159,7.47227594 C27.6278227,6.31425928 30.7593044,7.35896707 32,9.80643868" id="Stroke-7"></path>
                </g>
            </g>
        </g>
    </g>
</svg>