<?xml version="1.0" encoding="UTF-8"?>
<svg width="50px" height="51px" viewBox="0 0 50 51" version="1.1" xmlns="http://www.w3.org/2000/svg" xmlns:xlink="http://www.w3.org/1999/xlink">
    <!-- Generator: Sketch 55.2 (78181) - https://sketchapp.com -->
    <title>Icon - Sun</title>
    <desc>Created with Sketch.</desc>
    <g id="Pages" stroke="none" stroke-width="1" fill="none" fill-rule="evenodd">
        <g id="Our-Mission" transform="translate(-760.000000, -1703.000000)">
            <g id="Para" transform="translate(372.000000, 1642.000000)">
                <g id="Icon---Sun" transform="translate(389.000000, 62.643465)">
                    <g id="Group-9" transform="translate(8.000000, 0.000000)"></g>
                    <path d="M24,38 C31.7317389,38 38,31.9556054 38,24.5 C38,17.043722 31.7317389,11 24,11 C16.2682611,11 10,17.043722 10,24.5 C10,31.9556054 16.2682611,38 24,38 Z" id="Stroke-1" stroke="#FCD200" stroke-width="1.5" stroke-linecap="round"></path>
                    <path d="M24.5,0 L24.5,6" id="Stroke-5" stroke="#FCD200" stroke-width="1.5" stroke-linecap="round"></path>
                    <path d="M15,2 L17,7" id="Stroke-7" stroke="#FCD200" stroke-width="1.5" stroke-linecap="round"></path>
                    <path d="M7,7 L11,11" id="Stroke-10" stroke="#FCD200" stroke-width="1.5" stroke-linecap="round"></path>
                    <path d="M2,15 L7,17" id="Stroke-11" stroke="#FCD200" stroke-width="1.5" stroke-linecap="round"></path>
                    <path d="M0,24.5 L5,24.5" id="Stroke-13" stroke="#FCD200" stroke-width="1.5" stroke-linecap="round"></path>
                    <path d="M2,33 L7,31" id="Stroke-15" stroke="#FCD200" stroke-width="1.5" stroke-linecap="round"></path>
                    <path d="M7,41 L11,37" id="Stroke-18" stroke="#FCD200" stroke-width="1.5" stroke-linecap="round"></path>
                    <path d="M15,46 L17,41" id="Stroke-19" stroke="#FCD200" stroke-width="1.5" stroke-linecap="round"></path>
                    <path d="M24.5,48 L24.5,43" id="Stroke-21" stroke="#FCD200" stroke-width="1.5" stroke-linecap="round"></path>
                    <path d="M33,46 L31,41" id="Stroke-23" stroke="#FCD200" stroke-width="1.5" stroke-linecap="round"></path>
                    <path d="M41,41 L37,37" id="Stroke-26" stroke="#FCD200" stroke-width="1.5" stroke-linecap="round"></path>
                    <path d="M46,33 L41,31" id="Stroke-27" stroke="#FCD200" stroke-width="1.5" stroke-linecap="round"></path>
                    <path d="M48,24.5 L43,24.5" id="Stroke-29" stroke="#FCD200" stroke-width="1.5" stroke-linecap="round"></path>
                    <path d="M46,15 L41,17" id="Stroke-31" stroke="#FCD200" stroke-width="1.5" stroke-linecap="round"></path>
                    <path d="M41,7 L37,11" id="Stroke-34" stroke="#FCD200" stroke-width="1.5" stroke-linecap="round"></path>
                    <path d="M33,2 L31,7" id="Stroke-35" stroke="#FCD200" stroke-width="1.5" stroke-linecap="round"></path>
                </g>
            </g>
        </g>
    </g>
</svg>